<svg width="62" height="62" viewBox="0 0 62 62" fill="none" xmlns="http://www.w3.org/2000/svg">
<path d="M35.0932 13.7597C28.1055 19.1358 20.6038 31.1788 18.3704 40.6049C17.2405 45.3734 17.6453 48.7896 19.4807 49.9795C21.1059 51.0327 23.7296 50.2835 26.8675 47.8684C33.8549 42.4926 41.3571 30.4501 43.59 21.0239C44.7202 16.2552 44.3156 12.8388 42.4801 11.6491C40.855 10.5956 38.231 11.3446 35.0932 13.7597ZM22.2887 50.4894C21.1416 50.7485 20.1573 50.6332 19.3824 50.1308C17.4793 48.898 17.0464 45.4101 18.195 40.563C20.4366 31.1026 27.9678 19.0142 34.9833 13.6161C38.1864 11.1514 40.884 10.3992 42.5784 11.4976C44.4815 12.7305 44.9142 16.2179 43.7657 21.0652C41.5239 30.526 33.9927 42.6143 26.9773 48.0123C25.2392 49.3493 23.6498 50.1834 22.2887 50.4894Z" fill="url(#paint0_linear)"/>
<path d="M34.1828 14.2472C27.7734 19.6165 21.118 31.4358 19.3467 40.5937C18.4505 45.2263 18.9559 48.5145 20.7329 49.6159C22.3067 50.5913 24.7588 49.8008 27.637 47.3889C34.0461 42.0198 40.7017 30.2011 42.473 21.0431C43.3694 16.4102 42.864 13.122 41.087 12.0204C39.5135 11.0449 37.061 11.8353 34.1828 14.2472ZM23.4045 50.0364C22.3301 50.316 21.3959 50.2296 20.6454 49.7649C18.8028 48.623 18.2682 45.2667 19.1794 40.5576C20.957 31.3665 27.6388 19.5027 34.0737 14.1115C37.0118 11.65 39.5339 10.8546 41.1744 11.8716C43.0169 13.0134 43.5514 16.3694 42.6404 21.0784C40.8622 30.27 34.1807 42.1336 27.7457 47.5249C26.1514 48.8602 24.6798 49.7061 23.4045 50.0364Z" fill="url(#paint1_linear)"/>
<path d="M33.6664 14.7081C27.8453 19.8546 21.8972 31.2996 20.4073 40.2202C19.6535 44.7328 20.17 47.9534 21.8241 49.0576C23.2889 50.035 25.5354 49.301 28.1497 46.989C33.9706 41.8426 39.9188 30.3983 41.4086 21.4776C42.1627 16.9645 41.6462 13.7441 39.9921 12.6398C38.5275 11.6623 36.2806 12.3962 33.6664 14.7081ZM24.2918 49.51C23.306 49.7664 22.4443 49.6674 21.7458 49.2015C20.0306 48.0572 19.4863 44.7695 20.2528 40.1823C21.7482 31.2295 27.7195 19.7413 33.5639 14.5739C36.2323 12.2144 38.5432 11.4765 40.0703 12.4959C41.7853 13.6403 42.3297 16.9276 41.5634 21.5149C40.0677 30.4683 34.0962 41.956 28.252 47.1238C26.804 48.4034 25.4614 49.207 24.2918 49.51Z" fill="url(#paint2_linear)"/>
<path d="M33.2295 15.1797C27.888 20.122 22.5089 31.2024 21.2384 39.8791C20.5955 44.2684 21.1165 47.4147 22.6669 48.5121C24.04 49.4837 26.1174 48.797 28.5162 46.5766C33.8573 41.6347 39.2368 30.5546 40.5072 21.8778C41.1499 17.4881 40.6293 14.3421 39.079 13.2447C37.706 12.2726 35.6283 12.9596 33.2295 15.1797ZM24.9648 48.9848C24.0527 49.2221 23.2507 49.1145 22.5961 48.6514C20.9884 47.5139 20.441 44.302 21.0944 39.8402C22.3693 31.132 27.7698 20.0099 33.1326 15.0475C35.5812 12.7818 37.7182 12.092 39.1496 13.1054C40.7572 14.2428 41.3048 17.4541 40.6512 21.9161C39.3761 30.6249 33.9756 41.7466 28.6128 46.7093C27.2841 47.9382 26.0474 48.7043 24.9648 48.9848Z" fill="url(#paint3_linear)"/>
<path d="M32.4819 16.0038C27.6595 20.838 23.0143 31.5092 22.1271 39.7908C21.6779 43.9803 22.2739 46.9585 23.7615 47.9626C25.0786 48.8517 26.997 48.1461 29.1628 45.9744C33.9851 41.1405 38.6304 30.47 39.5177 22.1881C39.9666 17.9984 39.3708 15.0203 37.8836 14.016C36.5664 13.1266 34.6477 13.8321 32.4819 16.0038ZM25.9258 48.354C25.0814 48.6027 24.3281 48.5207 23.6999 48.0969C22.1576 47.0562 21.5347 44.0163 21.9911 39.7575C22.8816 31.4458 27.5452 20.7344 32.387 15.8805C34.5975 13.6644 36.5715 12.9546 37.945 13.8817C39.487 14.9224 40.1101 17.962 39.6538 22.2209C38.763 30.533 34.0996 41.2442 29.2576 46.0984C28.0581 47.3004 26.9284 48.0601 25.9258 48.354Z" fill="url(#paint4_linear)"/>
<path d="M32.0826 16.4923C27.8018 21.0679 23.7915 31.2814 23.1429 39.2592C22.8146 43.2953 23.4108 46.1815 24.7782 47.1791C25.9891 48.0621 27.7149 47.4174 29.6374 45.3618C33.9182 40.7868 37.9287 30.574 38.5771 22.5956C38.9055 18.5596 38.3091 15.6733 36.942 14.6756C35.7311 13.7922 34.0051 14.4369 32.0826 16.4923ZM26.7477 47.5977C25.9869 47.8219 25.3025 47.7284 24.7251 47.3075C23.3072 46.2736 22.6854 43.3271 23.0189 39.2245C23.6698 31.2176 27.6961 20.9657 31.9942 16.3715C33.9566 14.2739 35.7327 13.6262 36.9951 14.5471C38.4127 15.5812 39.0346 18.5271 38.7012 22.6299C38.0502 30.6374 34.0238 40.889 29.7259 45.4831C28.6608 46.6208 27.6511 47.3328 26.7477 47.5977Z" fill="url(#paint5_linear)"/>
<path d="M31.3908 17.1191C27.6691 21.5522 24.4393 31.3397 24.1913 38.9367C24.0657 42.7798 24.737 45.5121 26.0324 46.4339C27.1796 47.2497 28.7322 46.6032 30.4035 44.6115C34.1254 40.179 37.3552 30.3919 37.603 22.7946C37.7287 18.9515 37.0574 16.2193 35.7624 15.2973C34.6151 14.4812 33.0623 15.1278 31.3908 17.1191ZM27.8543 46.7934C27.1673 47.0214 26.5362 46.9458 25.9895 46.557C24.646 45.6016 23.9488 42.8126 24.0764 38.9059C24.3251 31.2815 27.5679 21.4571 31.3047 17.0061C33.0107 14.9737 34.6094 14.3233 35.8054 15.1742C37.1482 16.1294 37.8456 18.918 37.7183 22.8249C37.4693 30.4499 34.2266 40.274 30.4898 44.7253C29.5637 45.8276 28.67 46.5239 27.8543 46.7934Z" fill="url(#paint6_linear)"/>
<path d="M30.9544 17.7698C27.7595 21.9193 25.1382 31.2094 25.1111 38.4777C25.0972 42.1549 25.7636 44.7885 26.9383 45.7044C27.9785 46.515 29.3419 45.9356 30.7766 44.0713C33.9717 39.922 36.5931 30.6326 36.6199 23.3637C36.634 19.6866 35.9677 17.053 34.793 16.1371C33.7528 15.326 32.3892 15.9055 30.9544 17.7698ZM28.5666 46.0953C27.9617 46.296 27.3991 46.2076 26.9032 45.8212C25.6849 44.8718 24.9943 42.1831 25.0083 38.4455C25.0352 31.1506 27.667 21.8258 30.8749 17.6592C32.3396 15.7566 33.7437 15.1748 34.8282 16.0203C36.046 16.9695 36.7369 19.6576 36.723 23.3956C36.6957 30.691 34.0641 40.0155 30.8561 44.1823C30.0614 45.2142 29.2846 45.8583 28.5666 46.0953Z" fill="url(#paint7_linear)"/>
<path d="M30.4281 18.4155C27.7409 22.3514 25.7839 31.1488 26.0659 38.0254C26.2085 41.5049 26.9163 43.9944 28.0074 44.8573C28.9733 45.621 30.1703 45.0686 31.377 43.3005C34.0642 39.3651 36.0214 30.5682 35.7391 23.691C35.5969 20.2122 34.8888 17.7223 33.7982 16.8594C32.8321 16.095 31.6348 16.6474 30.4281 18.4155ZM29.4824 45.2221C28.9491 45.4138 28.4414 45.3319 27.9807 44.9679C26.8495 44.0732 26.1173 41.5317 25.9724 37.9956C25.6891 31.0936 27.654 22.2631 30.3522 18.3112C31.5842 16.5069 32.8174 15.9521 33.8247 16.7488C34.9555 17.6431 35.6875 20.1841 35.8329 23.7209C36.1159 30.6232 34.1511 39.4533 31.4531 43.4052C30.7845 44.3842 30.1156 44.9959 29.4824 45.2221Z" fill="url(#paint8_linear)"/>
<path d="M29.8816 19.1961C27.6774 22.8565 26.3164 31.05 26.8477 37.46C27.1164 40.7032 27.8419 43.0255 28.8381 43.8331C29.7199 44.5478 30.7511 44.0365 31.7408 42.3918C33.9448 38.7319 35.306 30.5389 34.7747 24.1283C34.5062 20.8857 33.7804 18.5631 32.7846 17.7557C31.9024 17.0402 30.8711 17.5517 29.8816 19.1961ZM30.1517 44.1773C29.6901 44.3545 29.2397 44.2765 28.8191 43.936C27.7863 43.0989 27.0371 40.7281 26.764 37.4317C26.2306 30.9983 27.5972 22.774 29.8104 19.0986C30.8208 17.4205 31.8838 16.9071 32.8037 17.6524C33.836 18.4894 34.5851 20.8599 34.8585 24.1565C35.3916 30.5905 34.0249 38.8145 31.812 42.4898C31.2636 43.4001 30.7 43.9684 30.1517 44.1773Z" fill="url(#paint9_linear)"/>
<path d="M29.3918 19.9888C27.6388 23.4028 26.8646 31.0172 27.6662 36.9621C28.0714 39.9695 28.8318 42.1191 29.7517 42.861C30.5663 43.5175 31.4488 43.0348 32.2358 41.5009C33.9887 38.0876 34.7631 30.4734 33.9615 24.5281C33.5563 21.521 32.796 19.3713 31.8763 18.6297C31.0611 17.9727 30.1785 18.4549 29.3918 19.9888ZM30.9277 43.1702C30.5301 43.3383 30.1287 43.2695 29.7404 42.9566C28.7863 42.1876 28.0028 39.9931 27.5908 36.9364C26.7864 30.97 27.5638 23.3269 29.3239 19.8989C30.1276 18.3338 31.038 17.8491 31.8876 18.5336C32.841 19.3023 33.6247 21.4966 34.0367 24.5538C34.8411 30.5205 34.0636 38.1635 32.3037 41.5912C31.8673 42.4402 31.4001 42.9721 30.9277 43.1702Z" fill="url(#paint10_linear)"/>
<path d="M28.9728 20.9085C27.7618 23.9622 27.6199 30.8948 28.6566 36.3621C29.181 39.1279 29.9399 41.1229 30.7387 41.8371C31.4459 42.469 32.1351 42.0619 32.6788 40.6898C33.8897 37.6368 34.0317 30.7044 32.9947 25.237C32.4706 22.4712 31.7118 20.4762 30.9133 19.7621C30.2058 19.1296 29.5164 19.5365 28.9728 20.9085ZM31.7185 42.1655C31.4046 42.3037 31.0725 42.2253 30.7357 41.9242C29.9076 41.1839 29.1265 39.1468 28.5937 36.3356C27.5529 30.8485 27.6956 23.8899 28.9116 20.8236C29.4669 19.4236 30.1787 19.0158 30.9162 19.6748C31.7442 20.4147 32.5249 22.4517 33.058 25.2632C34.0985 30.7505 33.9558 37.7091 32.74 40.7751C32.4386 41.5346 32.0912 42.0027 31.7185 42.1655Z" fill="url(#paint11_linear)"/>
<path d="M40.4831 10.8973C39.2521 11.1742 37.8309 11.8465 36.2754 12.9024C28.9035 17.9022 20.5577 30.0247 17.6699 39.9259C16.1574 45.1145 16.3888 48.8927 18.3061 50.2923C19.8799 51.4412 22.4997 50.8852 25.683 48.726C33.0549 43.726 41.4009 31.6035 44.2882 21.7025C45.8009 16.5139 45.5696 12.7352 43.6523 11.3362C42.8475 10.7485 41.7699 10.607 40.4831 10.8973ZM21.5149 50.9056C20.1746 51.2073 19.047 51.0569 18.2003 50.4382C16.2176 48.9912 15.9617 45.1414 17.497 39.8746C20.3944 29.9402 28.773 17.7725 36.1737 12.7528C39.4251 10.5476 42.1182 9.99229 43.7581 11.1902C45.7407 12.6368 45.9964 16.4869 44.4611 21.7539C41.5638 31.6889 33.1851 43.8555 25.7848 48.8754C24.2131 49.9417 22.7711 50.6229 21.5149 50.9056Z" fill="url(#paint12_linear)"/>
<path d="M41.2002 10.5521C40.1034 10.7992 38.8646 11.3216 37.5201 12.1129C29.79 16.6647 20.5925 28.7773 17.0174 39.1147C15.0797 44.7197 15.1118 48.8734 17.1067 50.5099C18.6277 51.7574 21.2321 51.4046 24.4402 49.5155C32.1702 44.9643 41.368 32.8512 44.9427 22.5137C46.8806 16.9087 46.8485 12.7554 44.8534 11.1187C43.9698 10.394 42.7208 10.2091 41.2002 10.5521ZM20.8011 51.2502C19.2229 51.6064 17.9201 51.4108 16.9922 50.6498C14.9357 48.9618 14.8831 44.7362 16.8471 39.0557C20.4341 28.6835 29.6672 16.5274 37.429 11.9576C40.7073 10.0274 43.3846 9.68002 44.9676 10.9787C47.0246 12.6664 47.0772 16.8922 45.1132 22.573C41.5259 32.9452 32.2933 45.1012 24.5313 49.6708C23.1733 50.4702 21.9186 50.9986 20.8011 51.2502Z" fill="url(#paint13_linear)"/>
<path d="M41.8742 10.2605C40.9495 10.4695 39.9283 10.8513 38.8197 11.4053C30.7613 15.4323 20.712 27.4385 16.4168 38.1682C14.0126 44.1769 13.8181 48.716 15.8829 50.6219C17.3683 51.9927 19.877 51.8557 23.1376 50.2253C31.1959 46.1981 41.2452 34.1922 45.5401 23.4624C47.9444 17.4534 48.1391 12.9145 46.0738 11.0089C45.0935 10.1039 43.6677 9.85638 41.8742 10.2605ZM20.1236 51.5451C18.2675 51.9634 16.787 51.7009 15.7607 50.7543C13.6374 48.7952 13.8161 44.1828 16.2494 38.1006C20.5582 27.3361 30.6464 15.2877 38.7391 11.2436C42.0721 9.5768 44.651 9.44982 46.1962 10.8763C48.3198 12.8352 48.1409 17.4475 45.7075 23.5299C41.3988 34.2944 31.3108 46.3428 23.2181 50.3873C22.0982 50.9467 21.063 51.3334 20.1236 51.5451Z" fill="url(#paint14_linear)"/>
<path d="M42.4126 10.063C41.7152 10.2201 40.9671 10.4618 40.1721 10.7877C31.8218 14.2143 20.9261 26.0081 15.884 37.0788C13.0168 43.3756 12.5536 48.4353 14.6455 50.6139C16.0677 52.096 18.5385 52.1748 21.7885 50.8417C30.1389 47.4148 41.0345 35.6218 46.0767 24.551C48.9437 18.2535 49.4071 13.1941 47.3149 11.0152C46.2404 9.89588 44.5677 9.57756 42.4126 10.063ZM19.5884 51.7419C17.3674 52.2425 15.6364 51.9068 14.5158 50.739C12.3383 48.4717 12.7774 43.4654 15.7199 37.0039C20.7779 25.8975 31.7165 14.0619 40.1043 10.6207C43.4281 9.25737 45.9672 9.3508 47.445 10.8904C49.6224 13.1576 49.1832 18.1638 46.2406 24.6253C41.1823 35.7322 30.2441 47.5676 21.8565 51.0085C21.0535 51.3379 20.296 51.5825 19.5884 51.7419Z" fill="url(#paint15_linear)"/>
<path d="M41.5689 10.2768C32.966 13.0219 21.2377 24.4921 15.4236 35.8458C12.023 42.4868 11.2636 47.9552 13.3935 50.4741C14.7486 52.0773 17.1693 52.3809 20.3916 51.3524C28.9944 48.6077 40.7226 37.1372 46.537 25.7837C49.9375 19.1427 50.697 13.6743 48.5672 11.1555C47.2121 9.55214 44.791 9.24869 41.5689 10.2768ZM19.2003 51.8652C16.5192 52.4701 14.4787 52.0376 13.255 50.5911C11.0775 48.0145 11.8281 42.4712 15.2633 35.7633C21.0959 24.3729 32.8722 12.8632 41.5141 10.105C44.8118 9.05206 47.2985 9.37576 48.7056 11.0384C50.8832 13.6149 50.1324 19.1582 46.6971 25.8661C40.865 37.2567 29.0884 48.7665 20.4462 51.5245C20.0174 51.6614 19.6019 51.7749 19.2003 51.8652Z" fill="url(#paint16_linear)"/>
<path d="M42.9964 9.88624C34.1895 11.8719 21.6525 22.8966 15.0455 34.4655C11.0818 41.4071 9.99234 47.2843 12.1323 50.1857C13.4131 51.9224 15.7732 52.4618 18.957 51.745L18.9616 51.744C27.7687 49.7591 40.3055 38.7336 46.9126 27.1646C50.8765 20.2225 51.9656 14.3459 49.8259 11.4445C48.5453 9.70761 46.1847 9.16849 43.0007 9.88545L42.9964 9.88624ZM19.0009 51.9196L18.9964 51.9208C15.7374 52.6547 13.3137 52.092 11.9874 50.2933C9.80373 47.3325 10.8878 41.3821 14.8891 34.3752C21.5172 22.7694 34.1076 11.7058 42.9571 9.71025L42.9614 9.70947C46.2205 8.97538 48.6444 9.53808 49.9703 11.337C52.1547 14.2981 51.0697 20.2483 47.0691 27.2547C40.4408 38.8608 27.8504 49.9245 19.0009 51.9196Z" fill="url(#paint17_linear)"/>
<path d="M42.981 9.88862C34.0874 11.8943 21.7819 21.8519 14.7647 32.9357C10.2143 40.1211 8.75937 46.3995 10.8716 49.7292C12.0687 51.6167 14.3593 52.4031 17.4952 52.0047C26.4535 50.8645 39.7784 40.408 47.1953 28.694C51.7456 21.5084 53.2005 15.2301 51.0885 11.9002C49.8912 10.013 47.6005 9.22604 44.4646 9.62478C43.9823 9.68583 43.4871 9.77475 42.981 9.88862ZM19.0117 51.9179C18.5016 52.0333 18.0036 52.1218 17.5178 52.1839C14.3078 52.5922 11.9569 51.7769 10.7193 49.8265C8.56881 46.4357 10.0244 40.0853 14.6125 32.8386C22.0542 21.0855 35.4361 10.5929 44.4423 9.44615C47.652 9.03763 50.003 9.85262 51.2407 11.8033C53.391 15.1941 51.9354 21.5444 47.3475 28.791C40.307 39.9103 27.9502 49.9022 19.0117 51.9179Z" fill="url(#paint18_linear)"/>
<path d="M42.7176 9.9343C33.8027 11.9446 21.899 20.8037 14.5872 31.2562C9.44073 38.6141 7.58244 45.2781 9.61655 49.083C10.7174 51.1426 12.9289 52.1924 16.0123 52.1199C17.0306 52.0957 18.1131 51.9508 19.2424 51.6964C28.1576 49.6862 40.0611 40.8266 47.3726 30.3746C52.5188 23.0166 54.3776 16.3524 52.3435 12.5475C51.2427 10.4877 49.0312 9.43822 45.9479 9.51061C44.9295 9.53429 43.8469 9.67976 42.7176 9.9343ZM19.2703 51.8737C18.1318 52.1303 17.0429 52.2759 16.0167 52.2997C12.8605 52.3749 10.5923 51.2915 9.45773 49.1677C7.39012 45.3021 9.25329 38.5673 14.4397 31.1526C22.7059 19.3352 36.8395 9.54534 45.9433 9.33022C49.0995 9.25548 51.3674 10.339 52.5023 12.4627C54.5696 16.3285 52.7067 23.0632 47.5201 30.4778C40.1852 40.9633 28.2321 49.8525 19.2703 51.8737Z" fill="url(#paint19_linear)"/>
<path d="M42.1579 10.0039C33.3179 11.9977 21.9886 19.7505 14.5249 29.4261C8.78351 36.8691 6.4845 43.8937 8.37523 48.2149C9.3642 50.4757 11.4887 51.8102 14.5186 52.0746C23.6041 52.8682 38.3701 43.9535 47.434 32.203C53.1755 24.7596 55.4744 17.7354 53.5836 13.4144C52.5948 11.1536 50.4704 9.81883 47.4404 9.5547C45.8357 9.41452 44.0543 9.57642 42.1579 10.0039ZM19.8273 51.8012C17.9161 52.2322 16.1212 52.3961 14.5034 52.2551C11.4029 51.9844 9.22716 50.6124 8.21006 48.2871C6.29267 43.904 8.60047 36.8129 14.3822 29.3165C23.4797 17.5222 38.3172 8.57625 47.4556 9.37402C50.5561 9.6447 52.7319 11.0172 53.7487 13.342C55.6661 17.7249 53.3585 24.8164 47.5767 32.3132C40.0889 42.0197 28.7141 49.7971 19.8273 51.8012Z" fill="url(#paint20_linear)"/>
<path d="M41.2621 10.0768C32.6267 12.0239 22.0424 18.6865 14.5891 27.4503C8.27326 34.8774 5.4972 42.2214 7.16502 47.0933C8.01881 49.5907 10.0469 51.2386 13.0272 51.8586C22.0734 53.7403 37.4806 45.8098 47.371 34.18C53.6874 26.7521 56.4634 19.4088 54.7956 14.5362C53.9415 12.0388 51.9138 10.3909 48.9334 9.77082C46.7032 9.30723 44.0868 9.43998 41.2621 10.0768ZM20.7265 51.7276C17.8787 52.3697 15.2402 52.5029 12.99 52.0355C9.94382 51.4022 7.87054 49.7133 6.99419 47.1519C5.30624 42.2184 8.09412 34.8095 14.4527 27.3324C24.3811 15.6581 39.8656 7.70054 48.9706 9.59386C52.0166 10.2274 54.0898 11.9164 54.9666 14.4775C56.6542 19.4112 53.8663 26.8199 47.508 34.2971C40.0329 43.0875 29.4065 49.7706 20.7265 51.7276Z" fill="url(#paint21_linear)"/>
<path d="M40.0014 10.1157C31.7341 11.9801 22.0499 17.5954 14.7886 25.3284C7.93532 32.6277 4.65027 40.2347 6.00172 45.6767C6.69171 48.4555 8.6087 50.4546 11.5461 51.4572C20.4791 54.5066 36.4606 47.7078 47.1703 36.3022C54.0237 29.0026 57.3089 21.3957 55.9576 15.9531C55.2677 13.1747 53.3506 11.1756 50.4134 10.1728C47.536 9.1909 43.929 9.23033 40.0014 10.1157ZM21.9903 51.6858C18.0299 52.5792 14.3914 52.6189 11.488 51.6282C8.49003 50.6045 6.5322 48.5622 5.82659 45.7205C4.46048 40.2183 7.76204 32.5491 14.6576 25.2048C25.4114 13.7525 41.4772 6.9323 50.4713 10.0021C53.4692 11.0255 55.4272 13.0678 56.1328 15.9098C57.4988 21.4117 54.1972 29.0807 47.3014 36.4262C40.019 44.1812 30.2992 49.8127 21.9903 51.6858Z" fill="url(#paint22_linear)"/>
<path d="M38.3872 10.0772C30.6714 11.8168 22.0186 16.4482 15.1364 23.0656C7.80383 30.1157 3.98283 37.9117 4.91652 43.9192C5.4006 47.0324 7.18983 49.4311 10.0917 50.8568C18.8312 55.1508 35.3091 49.6369 46.8232 38.5651C54.1563 31.5146 57.9774 23.7183 57.0438 17.7106C56.5599 14.5979 54.7705 12.1988 51.8686 10.7732C48.3522 9.045 43.5817 8.9056 38.3872 10.0772ZM23.6119 51.7237C18.3742 52.9048 13.5617 52.7626 10.0126 51.0192C7.05524 49.5665 5.23191 47.121 4.73884 43.9469C3.79617 37.8812 7.63641 30.0262 15.0115 22.9352C26.5767 11.8149 43.1459 6.2867 51.9479 10.6109C54.9055 12.0637 56.7284 14.5088 57.2216 17.6832C58.1643 23.7488 54.324 31.6038 46.9488 38.6949C40.048 45.3307 31.3639 49.9754 23.6119 51.7237Z" fill="url(#paint23_linear)"/>
<path d="M36.4735 9.90515C29.4948 11.479 21.9609 15.2081 15.6395 20.6679C7.9051 27.3463 3.53487 35.2368 3.94726 41.7743C4.16908 45.2811 5.8035 48.1415 8.6744 50.0455C17.1342 55.6578 34.0224 51.5837 46.3205 40.9626C54.0551 34.2836 58.4249 26.3932 58.0127 19.856C57.7908 16.3489 56.1563 13.4885 53.2862 11.5842C49.1745 8.85695 43.0718 8.41712 36.4735 9.90515ZM25.5313 51.8947C18.8799 53.3947 12.7246 52.9493 8.57447 50.1962C5.65464 48.2594 3.99277 45.3516 3.76743 41.7861C3.35123 35.1921 7.74501 27.2464 15.5216 20.5305C27.8765 9.86064 44.8624 5.77983 53.3854 11.4337C56.305 13.3707 57.9669 16.2783 58.1923 19.8441C58.6087 26.4378 54.2145 34.3842 46.4385 41.0996C40.0991 46.5735 32.5397 50.3141 25.5313 51.8947Z" fill="url(#paint24_linear)"/>
<path d="M34.3648 9.53882C28.2813 10.9104 21.9127 13.8285 16.3087 18.1426C8.26692 24.3319 3.34599 32.2039 3.14458 39.2007C3.03118 43.163 4.47132 46.5554 7.3095 49.0121C15.3994 56.0128 32.5995 53.5351 45.6513 43.4883C53.6931 37.2989 58.614 29.4267 58.8153 22.43C58.9287 18.4677 57.4885 15.0756 54.6505 12.6188C50.0341 8.62434 42.4508 7.71544 34.3648 9.53882ZM27.6433 52.2618C19.4961 54.0996 11.85 53.1798 7.1918 49.1488C4.31093 46.6559 2.84921 43.214 2.96466 39.1953C3.16705 32.1453 8.11415 24.2217 16.1985 17.9994C29.315 7.90317 46.618 5.42808 54.7682 12.4818C57.6487 14.9748 59.1109 18.4169 58.9953 22.4358C58.7927 29.4856 53.8457 37.409 45.7615 43.6321C40.1414 47.9573 33.751 50.8849 27.6433 52.2618Z" fill="url(#paint25_linear)"/>
<path d="M32.1953 8.91757C27.1168 10.0633 21.9166 12.264 17.1517 15.4978C8.90754 21.0915 3.45534 28.8177 2.56737 36.1641C2.02634 40.6391 3.2177 44.6427 6.01202 47.7423C13.6354 56.1971 31.0386 55.4749 44.8064 46.1319C53.0508 40.5377 58.5029 32.8116 59.3912 25.465C59.9318 20.9904 58.7407 16.9867 55.946 13.8873C50.9608 8.3583 41.7938 6.75317 32.1953 8.91757ZM29.8107 52.8832C20.1454 55.0627 10.9069 53.4404 5.87801 47.8629C3.04745 44.724 1.84075 40.6711 2.38843 36.1424C3.28265 28.7449 8.76376 20.9714 17.0501 15.348C30.8909 5.95677 48.3991 5.24705 56.0802 13.7665C58.9111 16.9055 60.1175 20.958 59.5699 25.487C58.676 32.8845 53.1947 40.658 44.908 46.2814C40.1286 49.5247 34.9095 51.7334 29.8107 52.8832Z" fill="url(#paint26_linear)"/>
<path d="M30.1052 7.99675C26.0832 8.90379 22.0237 10.4802 18.1794 12.7456C9.8421 17.6568 3.89811 25.0993 2.28039 32.6554C1.20331 37.6847 2.0741 42.378 4.79947 46.2281C9.9768 53.5424 20.7701 56.1314 31.8531 53.6334C35.8753 52.7266 39.9344 51.1496 43.7788 48.8845C52.1162 43.9734 58.06 36.5307 59.678 28.9749C60.7547 23.9455 59.8844 19.252 57.1588 15.4025C51.9815 8.08743 41.188 5.49827 30.1052 7.99675ZM31.8992 53.806C20.7427 56.3221 9.8717 53.7074 4.65168 46.3321C1.89701 42.4408 1.01636 37.6975 2.10418 32.6172C3.73225 25.0128 9.70809 17.5262 18.0878 12.5898C32.6031 4.0394 50.1965 5.25361 57.3067 15.2977C60.0611 19.1894 60.9422 23.9319 59.854 29.0127C58.2258 36.6174 52.2501 44.1038 43.8703 49.0408C40.0129 51.3129 35.9366 52.8956 31.8992 53.806Z" fill="url(#paint27_linear)"/>
<path d="M28.2071 6.74459C25.2459 7.41245 22.2797 8.45703 19.399 9.89741C10.9518 14.1213 4.73748 20.9673 2.34744 28.6799C0.612708 34.2816 1.07559 39.7383 3.68834 44.459C8.85112 53.7873 21.2426 57.7058 33.7529 54.8858C36.7141 54.2183 39.68 53.1733 42.5611 51.7327C51.0083 47.509 57.2229 40.663 59.6122 32.951C61.3473 27.3488 60.8843 21.8925 58.2715 17.1717C53.1086 7.84327 40.7171 3.92378 28.2071 6.74459ZM33.796 55.0607C21.2061 57.8995 8.73323 53.9463 3.5304 44.5467C0.893527 39.7819 0.425267 34.2767 2.17563 28.6256C4.57974 20.8674 10.8279 13.9817 19.3189 9.7362C34.4539 2.1679 51.9984 5.46424 58.4294 17.0843C61.0661 21.8486 61.5344 27.3537 59.7845 33.0047C57.3804 40.763 51.1321 47.649 42.641 51.8943C39.7499 53.3405 36.7691 54.3903 33.796 55.0607Z" fill="url(#paint28_linear)"/>
<path d="M26.576 5.14726C24.647 5.5821 22.7198 6.18637 20.816 6.96731C12.4847 10.3875 5.92642 16.6953 2.82335 24.2737C0.33798 30.3406 0.292266 36.7875 2.69539 42.4247C7.61564 53.9699 21.5106 59.6097 35.3835 56.4818C37.3118 56.047 39.2394 55.4428 41.1438 54.6616C49.4749 51.2412 56.033 44.9335 59.1362 37.3553C61.6214 31.2884 61.6672 24.8417 59.2638 19.2041C54.3439 7.65933 40.4487 2.01889 26.576 5.14726ZM35.424 56.6577C21.467 59.8064 7.48436 54.1224 2.52983 42.4956C0.107659 36.8133 0.152591 30.3175 2.65642 24.2051C5.77766 16.5829 12.3717 10.2395 20.7475 6.80032C36.4345 0.360055 53.7878 5.89289 59.4298 19.1332C61.8516 24.8158 61.8067 31.3119 59.3033 37.4238C56.1819 45.0466 49.5878 51.3895 41.2118 54.8286C39.2997 55.6134 37.3617 56.2213 35.424 56.6577Z" fill="url(#paint29_linear)"/>
<path d="M25.2878 3.19747C24.3333 3.41288 23.382 3.67163 22.4373 3.97303C6.36973 9.10468 -2.87006 25.321 1.83989 40.122C6.27586 54.0569 21.5238 61.8445 36.7032 58.4227C37.6446 58.2108 38.5844 57.9556 39.5224 57.6559C47.3077 55.1693 53.7375 50.0386 57.6277 43.21C61.5158 36.3829 62.4014 28.6755 60.1197 21.5074C57.8377 14.3394 52.6633 8.56762 45.5473 5.25504C39.2938 2.34473 32.1984 1.6393 25.2878 3.19747ZM36.7429 58.599C21.4722 62.0437 6.13306 54.2034 1.66837 40.1764C-3.07215 25.2812 6.2197 8.96313 22.3826 3.80125C30.2106 1.30112 38.4641 1.75894 45.6235 5.09138C52.7853 8.42548 57.9949 14.2359 60.2917 21.4526C62.5884 28.6693 61.6978 36.4278 57.7837 43.2996C53.8714 50.1682 47.4062 55.3277 39.5774 57.8274C38.6353 58.1286 37.6879 58.3857 36.7429 58.599Z" fill="url(#paint30_linear)"/>
<path d="M24.2667 0.932228C7.81417 4.64198 -2.55982 21.0659 1.14181 37.5434C4.84316 54.0208 21.2404 64.4078 37.693 60.6984C54.1457 56.9883 64.5198 40.5646 60.8181 24.0869C57.1168 7.60952 40.7194 -2.77772 24.2667 0.932228ZM37.7324 60.8741C21.1827 64.6063 4.68922 54.1577 0.965801 37.5829C-2.75811 21.0086 7.67723 4.4881 24.2272 0.756142C40.7771 -2.97601 57.2705 7.47277 60.994 24.0476C64.7178 40.6225 54.2827 57.1424 37.7324 60.8741Z" fill="url(#paint31_linear)"/>
<defs>
<linearGradient id="paint0_linear" x1="0.211853" y1="30.8151" x2="61.7479" y2="30.8151" gradientUnits="userSpaceOnUse">
<stop stop-color="#757F9A"/>
<stop offset="1" stop-color="#D7DDE8"/>
</linearGradient>
<linearGradient id="paint1_linear" x1="0.211853" y1="30.8151" x2="61.7479" y2="30.8151" gradientUnits="userSpaceOnUse">
<stop stop-color="#757F9A"/>
<stop offset="1" stop-color="#D7DDE8"/>
</linearGradient>
<linearGradient id="paint2_linear" x1="0.211853" y1="30.8151" x2="61.7479" y2="30.8151" gradientUnits="userSpaceOnUse">
<stop stop-color="#757F9A"/>
<stop offset="1" stop-color="#D7DDE8"/>
</linearGradient>
<linearGradient id="paint3_linear" x1="0.211853" y1="30.8151" x2="61.7479" y2="30.8151" gradientUnits="userSpaceOnUse">
<stop stop-color="#757F9A"/>
<stop offset="1" stop-color="#D7DDE8"/>
</linearGradient>
<linearGradient id="paint4_linear" x1="0.211853" y1="30.8151" x2="61.7479" y2="30.8151" gradientUnits="userSpaceOnUse">
<stop stop-color="#757F9A"/>
<stop offset="1" stop-color="#D7DDE8"/>
</linearGradient>
<linearGradient id="paint5_linear" x1="0.211853" y1="30.8151" x2="61.7479" y2="30.8151" gradientUnits="userSpaceOnUse">
<stop stop-color="#757F9A"/>
<stop offset="1" stop-color="#D7DDE8"/>
</linearGradient>
<linearGradient id="paint6_linear" x1="0.211853" y1="30.8151" x2="61.7479" y2="30.8151" gradientUnits="userSpaceOnUse">
<stop stop-color="#757F9A"/>
<stop offset="1" stop-color="#D7DDE8"/>
</linearGradient>
<linearGradient id="paint7_linear" x1="0.211853" y1="30.8151" x2="61.7479" y2="30.8151" gradientUnits="userSpaceOnUse">
<stop stop-color="#757F9A"/>
<stop offset="1" stop-color="#D7DDE8"/>
</linearGradient>
<linearGradient id="paint8_linear" x1="0.211853" y1="30.8151" x2="61.7479" y2="30.8151" gradientUnits="userSpaceOnUse">
<stop stop-color="#757F9A"/>
<stop offset="1" stop-color="#D7DDE8"/>
</linearGradient>
<linearGradient id="paint9_linear" x1="0.211853" y1="30.8151" x2="61.7479" y2="30.8151" gradientUnits="userSpaceOnUse">
<stop stop-color="#757F9A"/>
<stop offset="1" stop-color="#D7DDE8"/>
</linearGradient>
<linearGradient id="paint10_linear" x1="0.211853" y1="30.8151" x2="61.7479" y2="30.8151" gradientUnits="userSpaceOnUse">
<stop stop-color="#757F9A"/>
<stop offset="1" stop-color="#D7DDE8"/>
</linearGradient>
<linearGradient id="paint11_linear" x1="0.211853" y1="30.8151" x2="61.7479" y2="30.8151" gradientUnits="userSpaceOnUse">
<stop stop-color="#757F9A"/>
<stop offset="1" stop-color="#D7DDE8"/>
</linearGradient>
<linearGradient id="paint12_linear" x1="0.211853" y1="30.8151" x2="61.7479" y2="30.8151" gradientUnits="userSpaceOnUse">
<stop stop-color="#757F9A"/>
<stop offset="1" stop-color="#D7DDE8"/>
</linearGradient>
<linearGradient id="paint13_linear" x1="0.211853" y1="30.8151" x2="61.7479" y2="30.8151" gradientUnits="userSpaceOnUse">
<stop stop-color="#757F9A"/>
<stop offset="1" stop-color="#D7DDE8"/>
</linearGradient>
<linearGradient id="paint14_linear" x1="0.211853" y1="30.8151" x2="61.7479" y2="30.8151" gradientUnits="userSpaceOnUse">
<stop stop-color="#757F9A"/>
<stop offset="1" stop-color="#D7DDE8"/>
</linearGradient>
<linearGradient id="paint15_linear" x1="0.211853" y1="30.8151" x2="61.7479" y2="30.8151" gradientUnits="userSpaceOnUse">
<stop stop-color="#757F9A"/>
<stop offset="1" stop-color="#D7DDE8"/>
</linearGradient>
<linearGradient id="paint16_linear" x1="0.211853" y1="30.8151" x2="61.7479" y2="30.8151" gradientUnits="userSpaceOnUse">
<stop stop-color="#757F9A"/>
<stop offset="1" stop-color="#D7DDE8"/>
</linearGradient>
<linearGradient id="paint17_linear" x1="0.211853" y1="30.8151" x2="61.7479" y2="30.8151" gradientUnits="userSpaceOnUse">
<stop stop-color="#757F9A"/>
<stop offset="1" stop-color="#D7DDE8"/>
</linearGradient>
<linearGradient id="paint18_linear" x1="0.211853" y1="30.8151" x2="61.7479" y2="30.8151" gradientUnits="userSpaceOnUse">
<stop stop-color="#757F9A"/>
<stop offset="1" stop-color="#D7DDE8"/>
</linearGradient>
<linearGradient id="paint19_linear" x1="0.211853" y1="30.8151" x2="61.7479" y2="30.8151" gradientUnits="userSpaceOnUse">
<stop stop-color="#757F9A"/>
<stop offset="1" stop-color="#D7DDE8"/>
</linearGradient>
<linearGradient id="paint20_linear" x1="0.211853" y1="30.8151" x2="61.7479" y2="30.8151" gradientUnits="userSpaceOnUse">
<stop stop-color="#757F9A"/>
<stop offset="1" stop-color="#D7DDE8"/>
</linearGradient>
<linearGradient id="paint21_linear" x1="0.211853" y1="30.8151" x2="61.7479" y2="30.8151" gradientUnits="userSpaceOnUse">
<stop stop-color="#757F9A"/>
<stop offset="1" stop-color="#D7DDE8"/>
</linearGradient>
<linearGradient id="paint22_linear" x1="0.211853" y1="30.8151" x2="61.7479" y2="30.8151" gradientUnits="userSpaceOnUse">
<stop stop-color="#757F9A"/>
<stop offset="1" stop-color="#D7DDE8"/>
</linearGradient>
<linearGradient id="paint23_linear" x1="0.211853" y1="30.8151" x2="61.7479" y2="30.8151" gradientUnits="userSpaceOnUse">
<stop stop-color="#757F9A"/>
<stop offset="1" stop-color="#D7DDE8"/>
</linearGradient>
<linearGradient id="paint24_linear" x1="0.211853" y1="30.8151" x2="61.7479" y2="30.8151" gradientUnits="userSpaceOnUse">
<stop stop-color="#757F9A"/>
<stop offset="1" stop-color="#D7DDE8"/>
</linearGradient>
<linearGradient id="paint25_linear" x1="0.211853" y1="30.8151" x2="61.7479" y2="30.8151" gradientUnits="userSpaceOnUse">
<stop stop-color="#757F9A"/>
<stop offset="1" stop-color="#D7DDE8"/>
</linearGradient>
<linearGradient id="paint26_linear" x1="0.211853" y1="30.8151" x2="61.7479" y2="30.8151" gradientUnits="userSpaceOnUse">
<stop stop-color="#757F9A"/>
<stop offset="1" stop-color="#D7DDE8"/>
</linearGradient>
<linearGradient id="paint27_linear" x1="0.211853" y1="30.8151" x2="61.7479" y2="30.8151" gradientUnits="userSpaceOnUse">
<stop stop-color="#757F9A"/>
<stop offset="1" stop-color="#D7DDE8"/>
</linearGradient>
<linearGradient id="paint28_linear" x1="0.211853" y1="30.8151" x2="61.7479" y2="30.8151" gradientUnits="userSpaceOnUse">
<stop stop-color="#757F9A"/>
<stop offset="1" stop-color="#D7DDE8"/>
</linearGradient>
<linearGradient id="paint29_linear" x1="0.211853" y1="30.8151" x2="61.7479" y2="30.8151" gradientUnits="userSpaceOnUse">
<stop stop-color="#757F9A"/>
<stop offset="1" stop-color="#D7DDE8"/>
</linearGradient>
<linearGradient id="paint30_linear" x1="0.211853" y1="30.8151" x2="61.7479" y2="30.8151" gradientUnits="userSpaceOnUse">
<stop stop-color="#757F9A"/>
<stop offset="1" stop-color="#D7DDE8"/>
</linearGradient>
<linearGradient id="paint31_linear" x1="0.211853" y1="30.8151" x2="61.7479" y2="30.8151" gradientUnits="userSpaceOnUse">
<stop stop-color="#757F9A"/>
<stop offset="1" stop-color="#D7DDE8"/>
</linearGradient>
</defs>
</svg>
